<svg xmlns="http://www.w3.org/2000/svg" xmlns:xlink="http://www.w3.org/1999/xlink" width="189" height="40" viewBox="0 0 189 40">
    <defs>
        <path id="a" d="M0 40h188.799V.15H0z"/>
    </defs>
    <g fill="none" fill-rule="evenodd">
        <path fill="#FFF" d="M58.554 9.413L55.49 2.43l-3.063 6.983h6.126zm.492 1.114h-7.11L50.404 14H49l5.835-13h1.33L62 14h-1.422l-1.532-3.473z"/>
        <g>
            <path fill="#FFF" d="M77.606 5.667c0-2.139-1.398-3.361-4.044-3.361h-3.515V9.01h3.515c2.646 0 4.044-1.242 4.044-3.343zm.076 8.786l-3.024-4.298c-.34.039-.68.058-1.058.058h-3.553v4.24H68.65V1.083H73.6c3.364 0 5.405 1.72 5.405 4.584 0 2.101-1.096 3.572-3.024 4.202l3.232 4.584h-1.531zM95.05 5.667c0-2.139-1.4-3.361-4.045-3.361H87.49V9.01h3.515c2.646 0 4.044-1.242 4.044-3.343zm.075 8.786L92.1 10.155c-.34.039-.68.058-1.058.058H87.49v4.24h-1.398V1.083h4.95c3.365 0 5.406 1.72 5.406 4.584 0 2.101-1.096 3.572-3.024 4.202l3.232 4.584h-1.531zM111.32 9.735l-3.174-7.181-3.175 7.181h6.35zm.51 1.147h-7.37l-1.587 3.57h-1.455l6.047-13.369h1.38l6.047 13.37h-1.474l-1.587-3.571zM131.92 1.083v13.37h-1.153l-8.504-10.849v10.849h-1.398V1.083h1.152l8.523 10.849V1.083zM145.791 13.307c3.175 0 5.537-2.369 5.537-5.539 0-3.17-2.362-5.538-5.537-5.538-3.194 0-5.575 2.368-5.575 5.538 0 3.17 2.381 5.539 5.575 5.539zm7.54 2.273c-.812.993-1.927 1.528-3.212 1.528-1.55 0-2.835-.707-4.574-2.54-3.874-.115-6.708-2.98-6.708-6.8 0-3.896 2.948-6.8 6.954-6.8 3.969 0 6.936 2.885 6.936 6.8 0 3.419-2.25 6.035-5.462 6.666 1.002 1.07 1.927 1.547 2.872 1.547 1.002 0 1.815-.401 2.514-1.223l.68.822zM159.53 8.742V1.083h1.399v7.602c0 3.17 1.473 4.622 4.043 4.622 2.59 0 4.064-1.451 4.064-4.622V1.083h1.36v7.66c0 3.838-2.04 5.824-5.424 5.824-3.382 0-5.442-1.986-5.442-5.825M187.744 13.23v1.223h-9.354V1.083h9.07v1.223h-7.672V7.06h6.842v1.204h-6.842v4.965z"/>
            <mask id="b" fill="#fff">
                <use xlink:href="#a"/>
            </mask>
            <path fill="#FFF" d="M49.04 37.344h4.437V21.493h-4.436zM70.796 37.344l-.045-8.401-4.033 6.838h-1.971l-4.011-6.612v8.175h-4.1V21.492h3.652l5.512 9.149 5.377-9.149h3.652l.045 15.852zM87.666 27.357c0-1.471-.918-2.332-2.756-2.332h-2.465v4.643h2.465c1.838 0 2.756-.861 2.756-2.31m4.482 0c0 3.6-2.69 5.842-6.969 5.842h-2.734v4.144H78.01V21.492h7.17c4.28 0 6.969 2.242 6.969 5.865M102.722 30.958l-2.017-5.073-2.016 5.073h4.033zm1.3 3.306h-6.633l-1.232 3.08H91.63l6.923-15.852h4.37l6.946 15.852h-4.617l-1.232-3.08zM118.024 25.025h-2.465v4.642h2.465c1.837 0 2.756-.86 2.756-2.31 0-1.472-.92-2.332-2.756-2.332zm-.045 8.107h-2.42v4.212h-4.437V21.493h7.17c4.28 0 6.969 2.241 6.969 5.864 0 2.333-1.12 4.054-3.07 5.005l3.383 4.982h-4.75l-2.845-4.212zM136.91 30.958l-2.016-5.073-2.017 5.073h4.033zm1.3 3.306h-6.632l-1.233 3.08h-4.525l6.923-15.852h4.37l6.945 15.852h-4.616l-1.232-3.08zM155.753 32.498c0-1.087-.807-1.608-2.33-1.608h-3.72v3.216h3.72c1.523 0 2.33-.521 2.33-1.608zm-6.05-7.767v3.057h3.047c1.479 0 2.24-.521 2.24-1.54 0-.996-.761-1.517-2.24-1.517h-3.047zm10.53 8.265c0 2.74-2.24 4.348-6.452 4.348h-8.47V21.493h8.021c4.123 0 6.14 1.698 6.14 4.143 0 1.518-.762 2.74-2.107 3.443 1.77.634 2.869 1.992 2.869 3.917zM162.54 21.492h4.436V33.79h7.484v3.555h-11.92zM188.798 33.88v3.464h-12.592V21.492h12.301v3.465h-7.909v2.672h6.968v3.352h-6.968v2.898z" mask="url(#b)"/>
            <path fill="#104C8D" d="M25.823 34.7s-3.584-.438-4.377-6.67c-.792-6.23 6.676-12.382 12.181-9.185 0 0-8.615 3.348-6.514 10.572 2.315 7.957 9.457 7.589 12.745 7.904 0 0-9.85 3.792-14.035-2.62" mask="url(#b)"/>
            <path fill="#FF4713" d="M34.095 6.686s-7.449-1.27-13.834 5.356c-6.385 6.626-.912 20.733 8.767 23.707 9.68 2.975 12.576 1.096 12.576 1.096s-16.01 5.102-27.543-2.836C2.528 26.072 3.447 9.79 14.146 2.999c10.699-6.792 18.407.247 19.949 3.687" mask="url(#b)"/>
            <path fill="#D7282F" d="M41.28 37.115S23.51 44.587 9.624 35.48C-4.264 26.377.015 11.53 3.31 7.488c3.492-4.282 6.199-5.471 6.199-5.471S3.137 16.28 11.576 26.469c8.44 10.187 24.402 11.794 29.705 10.646" mask="url(#b)"/>
        </g>
    </g>
</svg>
