<svg xmlns="http://www.w3.org/2000/svg" width="20" height="18" viewBox="0 0 20 18">
    <g fill="#FFF" fill-rule="evenodd">
        <path d="M6.442 16.417c0 .506-.414.92-.92.92H1.717a.923.923 0 0 1-.92-.92v-4.172c0-.506.414-.92.92-.92H5.52c.507 0 .92.414.92.92v4.172zM13.205 16.417c0 .506-.414.92-.92.92H8.482a.923.923 0 0 1-.92-.92v-6.38c0-.507.413-.92.92-.92h3.803c.506 0 .92.413.92.92v6.38zM19.97 16.417c0 .506-.415.92-.921.92h-3.804a.923.923 0 0 1-.92-.92V7.583c0-.507.414-.92.92-.92h3.804c.506 0 .92.413.92.92v8.834zM19.173.017L15.04 1.023c-.328.08-.401.34-.163.578l.882.861c.074.085-.014.197-.083.245-.556.379-1.437.935-2.655 1.57C6.388 7.739.92 7.527.838 7.523a.798.798 0 0 0-.082 1.593c.033.002.164.008.385.008 1.418 0 6.51-.245 12.617-3.431 1.446-.754 2.447-1.404 3.032-1.816.083-.058.227-.158.36-.023l.965.965c.238.238.497.165.575-.164L19.628.47c.078-.329-.127-.532-.455-.453z"/>
    </g>
</svg>
