<svg xmlns="http://www.w3.org/2000/svg" viewBox="0 0 878.07 132.05"><defs><style>.cls-1{fill:#ff4713;}.cls-2{fill:#101426;}.cls-3{fill:#104c8d;}.cls-4{fill:#d7282f;}</style></defs><title>Recurso 11</title><g id="Capa_2" data-name="Capa 2"><g id="Capa_1-2" data-name="Capa 1"><path class="cls-1" d="M334,131.73c-51.89-22.55-93.5-92.65-93.5-92.65-47.26-57.84-77.57-8.82-96.07,38.24s-78.09,54.41-78.09,54.41Z"/><path class="cls-2" d="M411.78,37.54h-26.6L379.45,50.3H374.2L396,2.55h5L422.83,50.3h-5.32Zm-1.84-4.09L398.48,7.81,387,33.45Z"/><path class="cls-2" d="M477,50.3,466.08,35a33.21,33.21,0,0,1-3.82.21H449.43V50.3h-5V2.55h17.87c12.14,0,19.5,6.14,19.5,16.37,0,7.51-3.95,12.76-10.91,15L482.51,50.3Zm-.27-31.38c0-7.63-5.05-12-14.6-12H449.43V30.86h12.69C471.67,30.86,476.72,26.43,476.72,18.92Z"/><path class="cls-2" d="M540,50.3,529,35a33.21,33.21,0,0,1-3.82.21H512.39V50.3h-5V2.55h17.87c12.14,0,19.5,6.14,19.5,16.37,0,7.51-4,12.76-10.91,15L545.47,50.3Zm-.27-31.38c0-7.63-5-12-14.6-12H512.39V30.86h12.69C534.63,30.86,539.68,26.43,539.68,18.92Z"/><path class="cls-2" d="M600.25,37.54h-26.6L567.92,50.3h-5.25L584.49,2.55h5L611.3,50.3H606Zm-1.84-4.09L587,7.81,575.49,33.45Z"/><path class="cls-2" d="M672.76,2.55V50.3H668.6L637.91,11.56V50.3h-5V2.55H637L667.78,41.3V2.55Z"/><path class="cls-2" d="M750,54.32a14.62,14.62,0,0,1-11.59,5.46c-5.59,0-10.23-2.52-16.51-9.07-14-.41-24.21-10.64-24.21-24.28,0-13.92,10.64-24.28,25.1-24.28s25,10.29,25,24.28c0,12.21-8.11,21.55-19.71,23.8,3.61,3.82,7,5.53,10.37,5.53a11.45,11.45,0,0,0,9.07-4.37Zm-27.21-8.11c11.46,0,20-8.46,20-19.78s-8.52-19.78-20-19.78-20.12,8.45-20.12,19.78S711.3,46.21,722.83,46.21Z"/><path class="cls-2" d="M772.42,29.91V2.55h5.05V29.7c0,11.32,5.32,16.51,14.6,16.51S806.73,41,806.73,29.7V2.55h4.91V29.91c0,13.71-7.36,20.8-19.57,20.8S772.42,43.62,772.42,29.91Z"/><path class="cls-2" d="M874.26,45.93V50.3H840.5V2.55h32.74V6.92H845.55v17h24.69v4.3H845.55V45.93Z"/><path class="cls-2" d="M373.61,75.44h16v56.61h-16Z"/><path class="cls-2" d="M452.14,132.05l-.17-30-14.55,24.42H430.3l-14.48-23.61v29.19H401V75.44h13.18l19.89,32.68,19.41-32.68h13.18l.16,56.61Z"/><path class="cls-2" d="M529.2,96.39c0,12.86-9.7,20.86-25.15,20.86h-9.86v14.8h-16V75.44h25.88C519.5,75.44,529.2,83.45,529.2,96.39Zm-16.17,0c0-5.26-3.32-8.33-9.95-8.33h-8.89v16.58h8.89C509.71,104.64,513,101.57,513,96.39Z"/><path class="cls-2" d="M572.06,121.06H548.13l-4.45,11H527.34l25-56.61H568.1l25.07,56.61H576.51Zm-4.69-11.81L560.1,91.13l-7.28,18.12Z"/><path class="cls-2" d="M622.45,117h-8.74v15h-16V75.44h25.88c15.44,0,25.15,8,25.15,21,0,8.33-4.05,14.48-11.08,17.87l12.21,17.79H632.71Zm.16-28.95h-8.9v16.58h8.9c6.63,0,9.94-3.07,9.94-8.25S629.24,88.06,622.61,88.06Z"/><path class="cls-2" d="M695.47,121.06H671.53l-4.45,11H650.75l25-56.61h15.77l25.07,56.61H699.92Zm-4.69-11.81L683.5,91.13l-7.28,18.12Z"/><path class="cls-2" d="M775,116.53c0,9.78-8.08,15.52-23.29,15.52H721.1V75.44h29c14.88,0,22.15,6.07,22.15,14.8a13.38,13.38,0,0,1-7.6,12.3C771,104.8,775,109.65,775,116.53ZM737,87V97.93h11c5.34,0,8.09-1.86,8.09-5.5S753.29,87,748,87Zm21.84,27.74c0-3.88-2.91-5.74-8.41-5.74H737v11.48h13.43C755.88,120.49,758.79,118.63,758.79,114.75Z"/><path class="cls-2" d="M783.29,75.44h16v43.92h27v12.69h-43Z"/><path class="cls-2" d="M878.07,119.68v12.37H832.62V75.44H877V87.82H848.47v9.54h25.15v12H848.47v10.35Z"/><path class="cls-3" d="M267,131.73c-49.5-25-89-102.63-89-102.63C132.89-35,104,19.33,86.33,71.46s-74.49,60.27-74.49,60.27Z"/><path class="cls-4" d="M147,131.73c-28.37-22.55-51.79-92.65-51.79-92.65C69.37-18.76,52.8,30.26,42.69,77.32S0,131.73,0,131.73Z"/></g></g></svg>